<svg version="1.1" xmlns="http://www.w3.org/2000/svg" xmlns:xlink="http://www.w3.org/1999/xlink" width="506" height="222.5"><style xmlns="http://www.w3.org/1999/xhtml"></style><defs/><g transform="translate(0,0)"><g><rect fill="#FFFFFF" stroke="none" x="0" y="0" width="506" height="222.5"/></g><g transform="translate(0,0) matrix(1,0,0,1,110,90)"><g><g transform="translate(0,0) scale(1,0.75)"><g><path fill="#FFFFFF" stroke="none" d="M 0 0 L 100 0 Q 100 0 100 0 L 100 100 Q 100 100 100 100 L 0 100 Q 0 100 0 100 L 0 0 Q 0 0 0 0 Z"/><g transform="scale(1,1.3333333333333333)"><path fill="none" stroke="none" d="M 0 0 L 100 0 Q 100 0 100 0 L 100 75 Q 100 75 100 75 L 0 75 Q 0 75 0 75 L 0 0 Q 0 0 0 0 Z"/><path fill="none" stroke="#333333" d="M 0 0 M 0 0 L 100 0 Q 100 0 100 0 L 100 75 Q 100 75 100 75 L 0 75 Q 0 75 0 75 L 0 0 Q 0 0 0 0 Z" stroke-miterlimit="10" stroke-width="2"/></g></g></g></g></g><g transform="matrix(1,0,0,1,120,121)"><g><g/></g><g><g/></g><g><g/></g><g><g/><text fill="rgb(0, 0, 0)" stroke="none" font-family="&quot;Arial&quot;" font-size="12px" font-style="normal" font-weight="normal" text-decoration="" line-height="14px" x="36.649993896484375" y="11">a</text></g><g><g/></g></g><g transform="translate(0,0) matrix(1,0,0,1,380,127.5)"><g><g transform="translate(0,0) scale(1,0.75)"><g><path fill="#FFFFFF" stroke="none" d="M 0 0 L 100 0 Q 100 0 100 0 L 100 100 Q 100 100 100 100 L 0 100 Q 0 100 0 100 L 0 0 Q 0 0 0 0 Z"/><g transform="scale(1,1.3333333333333333)"><path fill="none" stroke="none" d="M 0 0 L 100 0 Q 100 0 100 0 L 100 75 Q 100 75 100 75 L 0 75 Q 0 75 0 75 L 0 0 Q 0 0 0 0 Z"/><path fill="none" stroke="#333333" d="M 0 0 M 0 0 L 100 0 Q 100 0 100 0 L 100 75 Q 100 75 100 75 L 0 75 Q 0 75 0 75 L 0 0 Q 0 0 0 0 Z" stroke-miterlimit="10" stroke-width="2"/></g></g></g></g></g><g transform="matrix(1,0,0,1,390,158)"><g><g/></g><g><g/></g><g><g/></g><g><g/><text fill="rgb(0, 0, 0)" stroke="none" font-family="&quot;Arial&quot;" font-size="12px" font-style="normal" font-weight="normal" text-decoration="" line-height="14px" x="36.649993896484375" y="11">b</text></g><g><g/></g></g><g transform="matrix(1,0,0,1,205.5,123)"><g transform="translate(0,0)"><g transform="translate(-207,-128) translate(1.5,5) matrix(1,0,0,1,0,0)"><g><path fill="none" stroke="#000000" d="M 210 127.5 L 285 127.5 Q 295 127.5 295 137.5 L 295 155 Q 295 165 305 165 L 380 165" stroke-miterlimit="10" stroke-width="2"/></g></g></g></g></g></svg>